<?xml version="1.0" encoding="UTF-8" standalone="no"?>
<!-- Created with Inkscape (http://www.inkscape.org/) -->

<svg
   version="1.1"
   id="svg1"
   width="516.04443"
   height="483.08768"
   viewBox="0 0 516.04443 483.08768"
   xmlns="http://www.w3.org/2000/svg"
   xmlns:svg="http://www.w3.org/2000/svg">
  <defs
     id="defs1" />
  <g
     id="g1"
     transform="translate(-2164.7283,-146.60361)">
    <path
       style="fill:#000000"
       d="m 2398.1566,628.14539 c -1.2316,-0.86263 -1.9372,-2.05716 -1.568,-2.65451 0.3818,-0.61781 0.21,-0.80101 -0.3986,-0.42489 -0.5884,0.36366 -2.3455,-0.39588 -3.9045,-1.68786 -1.5591,-1.29197 -7.3347,-5.72891 -12.8347,-9.85986 -21.6121,-16.23249 -32.6899,-22.58264 -50.5,-28.94828 -11.0969,-3.96622 -11.4389,-4.56491 -1.5602,-2.73137 24.2817,4.50683 41.4256,14.15796 63.8141,35.92408 6.7354,6.54812 11.5587,11.91589 10.7186,11.92839 -0.8401,0.0125 -2.5351,-0.68307 -3.7667,-1.5457 z m 17.2138,-25.96738 c 0.8819,-3.5136 5.0035,-9.27263 9.0804,-12.6878 3.0602,-2.56351 12.3858,-7.22397 13.0753,-6.53442 0.2094,0.20935 -1.8279,2.06491 -4.5273,4.12346 -2.6993,2.05856 -7.9338,6.95042 -11.6321,10.87081 -5.7631,6.10926 -6.6201,6.71351 -5.9963,4.22795 z M 2207.8217,585.2086 c -4.8038,-1.54084 -11.8709,-8.10678 -11.8709,-11.02906 0,-3.51373 3.0554,-2.45421 8.305,2.8799 6.2496,6.35034 10.2246,7.64464 17.5823,5.72508 9.0173,-2.35251 10.1127,-2.42394 10.1127,-0.65946 0,2.23152 -3.5165,3.39438 -12.1915,4.03155 -5.0371,0.36998 -8.7471,0.0754 -11.9376,-0.94801 z m 305.9021,-2.23471 c -1.6496,-0.23499 -4.1127,-2.00728 -6.2339,-4.48545 -3.4698,-4.05366 -3.5995,-4.10507 -12.273,-4.86472 -26.1753,-2.29253 -60.3993,0.771 -78.6112,7.03679 -3.1102,1.07007 -5.6549,1.75797 -5.6549,1.52868 0,-0.2293 1.4318,-2.44824 3.1818,-4.93099 1.75,-2.48275 2.9407,-4.75521 2.646,-5.04991 -0.6625,-0.66254 -18.5257,1.17253 -25.3278,2.6019 -2.75,0.57788 -7.6426,2.19254 -10.8724,3.58814 -6.5714,2.83953 -10.8339,2.70666 -15.3871,-0.47966 -1.7588,-1.23083 -5.2479,-2.12911 -9.7405,-2.50775 -3.85,-0.32447 -15.1,-2.49927 -25,-4.83287 -17.9292,-4.22623 -18.0767,-4.24297 -37.5,-4.25419 -14.5572,-0.008 -21.7813,0.43407 -28.5,1.74566 -13.6436,2.66342 -24.6098,5.40477 -32.6981,8.17387 -4.016,1.37493 -9.7769,2.76183 -12.8019,3.08199 -4.7025,0.4977 -5.9997,0.24131 -8.9459,-1.76813 -1.8953,-1.29263 -4.3383,-3.87806 -5.4288,-5.7454 -1.8701,-3.20202 -1.9114,-3.96867 -0.7248,-13.47664 0.692,-5.54482 1.9863,-11.31412 2.8763,-12.82068 2.0523,-3.47419 1.0296,-4.5591 -2.2636,-2.40132 -3.2533,2.13166 -3.1198,2.55504 -5.0158,-15.8994 -0.8476,-8.25 -1.9485,-17.7 -2.4465,-21 -0.498,-3.3 -1.6541,-10.95 -2.5691,-17 -4.4327,-29.30857 -11.4492,-57.75994 -15.7813,-63.99217 -1.1499,-1.65431 -3.8482,-5.03283 -5.9961,-7.50783 -5.0404,-5.80785 -6.2916,-8.31504 -7.552,-15.13355 -1.1376,-6.15354 0.3971,-16.23285 3.4789,-22.84906 2.3032,-4.94471 16.1296,-24.96106 19.5258,-28.26739 3.4827,-3.39059 7.9988,-3.60499 14.6478,-0.6954 7.3918,3.23469 8.3611,3.62822 14.1951,5.76297 3.025,1.1069 8.6596,3.17577 12.5212,4.59749 8.6983,3.20239 11.7373,3.24071 15.7955,0.19916 6.7975,-5.09454 19.7391,-9.61422 27.5293,-9.61422 9.4828,0 21.1582,-10.09233 28.391,-24.54143 5.9024,-11.79127 11.8471,-30.71552 13.3192,-42.39993 0.5562,-4.41478 0.4541,-4.63753 -3.237,-7.05864 -6.2881,-4.12453 -14.9938,-13.89672 -18.2222,-20.45445 -6.9243,-14.06535 -10.2423,-33.12713 -8.1381,-46.75253 2.2276,-14.42338 6.2058,-24.09883 13.8946,-33.79302 9.2584,-11.67308 16.7703,-16.53823 36.8834,-23.88781 15.4137,-5.63236 26.9098,-7.28828 38.7631,-5.58353 35.9693,5.17312 62.0183,31.34202 65.596,65.89814 0.5084,4.90973 1.0322,8.98343 1.1641,9.05265 6.988,3.66669 7.2846,6.23605 1.9899,17.23239 -3.3081,6.87033 -3.7499,8.67203 -3.7494,15.28816 6e-4,6.41751 0.4696,8.46822 3.25,14.2083 3.6177,7.46872 3.9765,11.61239 1.4514,16.76395 -2.0021,4.08453 -5.2928,5.9926 -10.3702,6.01301 -6.3531,0.0255 -6.8318,0.54912 -6.8318,7.47251 0,3.43408 -0.5112,7.77343 -1.1361,9.64301 -1.1305,3.38279 -5.5013,8.89922 -7.051,8.89922 -0.4471,0 -0.8129,-2.07378 -0.8129,-4.60841 0,-4.41629 -0.1042,-4.58225 -2.5,-3.98095 -1.4416,0.36183 -2.5,0.19606 -2.5,-0.39159 0,-1.76907 -2.8846,-1.10322 -3.9648,0.91521 -2.3554,4.40106 0.3565,9.00389 4.3924,7.45517 0.9868,-0.37868 1.5724,-0.0604 1.5724,0.8545 0,0.97089 -0.9186,1.39296 -2.75,1.26351 -1.5125,-0.10692 -4.6625,-0.26483 -7,-0.35092 -2.8067,-0.10337 -4.9519,-0.85844 -6.3169,-2.22343 -1.6099,-1.60991 -2.3741,-1.81198 -3.4562,-0.91391 -0.7641,0.63415 -1.8906,0.84315 -2.5034,0.46446 -0.6127,-0.3787 -4.3262,-1.09188 -8.2521,-1.58484 -9.4251,-1.18345 -10.6763,-1.65008 -11.7093,-4.36686 -0.5912,-1.55521 -1.9451,-2.47328 -4.1927,-2.84308 -1.8257,-0.30039 -4.5569,-0.85573 -6.0694,-1.23409 -2.4561,-0.61441 -2.75,-0.41782 -2.75,1.83976 0,2.89793 4.2691,6.9348 9.8707,9.33384 4.4995,1.92702 21.2686,6.1747 30.6293,7.75856 l 7,1.18441 -0.347,4.96433 c -0.1908,2.73038 -1.0287,5.73039 -1.8618,6.66669 -1.359,1.52717 -1.2887,2.44733 0.684,8.94174 1.2093,3.98165 2.0275,8.70676 1.8182,10.50023 l -0.3807,3.26085 4.0729,-0.55826 c 5.3221,-0.72948 9.5359,1.093 17.1196,7.40419 7.3943,6.15363 10.7937,12.87852 10.7411,21.24889 -0.066,10.44166 -5.6916,17.33738 -19.6531,24.08904 -4.3832,2.11967 -8.1776,4.06208 -8.432,4.31645 -0.2544,0.25437 3.5203,5.45217 8.3881,11.55066 9.4203,11.80182 10.439,13.39872 7.9343,12.43754 -2.6568,-1.0195 -1.765,0.8844 2.626,5.60631 3.7767,4.0614 18.7904,24.38429 18.7904,25.43523 0,0.63139 6.2386,10.56477 6.6351,10.56477 0.5577,0 6.3649,-11.8618 6.3649,-13.0009 0,-0.58187 -1.8037,-3.4072 -4.0082,-6.27852 -2.2045,-2.87132 -4.3517,-5.67058 -4.7714,-6.22058 -1.9921,-2.61045 -11.0665,-16.78248 -14.9897,-23.41046 -5.4103,-9.14027 -8.2376,-16.15845 -8.2087,-20.37656 l 0.022,-3.21298 1.8972,4.17862 c 4.6723,10.29104 30.3366,50.32138 32.2621,50.32138 0.4773,0 1.6884,-1.9125 2.6914,-4.25 2.0065,-4.67606 3.9605,-8.98943 9.8528,-21.75 2.1588,-4.675 6.1268,-13.7875 8.8179,-20.25 2.6911,-6.4625 5.4648,-11.75 6.1638,-11.75 1.6342,0 1.6001,-3.32311 -0.093,-9 -0.738,-2.475 -1.64,-5.73083 -2.0045,-7.23518 l -0.6628,-2.73518 5.7653,0.55624 c 3.171,0.30593 6.295,0.72251 6.9423,0.92574 2.5869,0.81222 3.2343,-2.00673 2.1455,-9.34273 -0.5918,-3.98682 -0.9017,-7.42291 -0.6889,-7.63578 0.2129,-0.21286 3.5324,1.14825 7.3768,3.02467 3.8443,1.87643 13.2054,5.4903 20.8025,8.03081 7.597,2.54052 13.6444,4.78752 13.4386,4.99334 -0.5756,0.57561 -24.7047,-7.22905 -31.1175,-10.06514 -3.13,-1.38423 -5.9031,-2.51679 -6.1624,-2.51679 -1.1167,0 -0.3912,12.81941 0.7785,13.7561 0.6875,0.55054 4.175,1.32056 7.75,1.71115 3.575,0.39059 9.425,1.33594 13,2.10079 l 6.5,1.39064 -7,-0.4533 c -25.3313,-1.64038 -30.0076,-1.67941 -31.8766,-0.26611 -1.561,1.18042 -1.6812,1.78412 -0.7148,3.5899 1.0618,1.98397 1.998,2.18178 10.8766,2.29805 5.3431,0.07 14.6648,0.4433 20.7148,0.82961 10.9531,0.69939 10.9267,0.70311 -6.191,0.87278 -10.4294,0.10337 -17.4391,0.57195 -17.8219,1.19135 -1.0715,1.73368 5.4805,3.68542 18.0129,5.36578 6.6,0.88494 14.925,2.04811 18.5,2.58484 3.575,0.53673 10.775,1.46584 16,2.06468 31.4866,3.60874 29.8219,3.20272 29.6414,7.22921 -0.1138,2.53841 0.4099,3.42371 2.6823,4.5343 3.6828,1.79989 7.5072,0.77513 8.6869,-2.3277 0.517,-1.35964 1.5137,-2.47207 2.215,-2.47207 1.2673,0 11.5705,-4.08511 40.2744,-15.96844 8.25,-3.41548 15.9,-6.45981 17,-6.76519 1.1,-0.30538 2.45,-0.88828 3,-1.29533 0.55,-0.40705 2.4625,-1.05281 4.25,-1.43502 2.2973,-0.49122 3.25,-1.25792 3.25,-2.61548 0,-1.05629 -0.3711,-1.92054 -0.8248,-1.92054 -0.4536,0 -6.8324,2.475 -14.1752,5.5 -7.3428,3.025 -13.6091,5.49897 -13.9252,5.49772 -0.3162,-10e-4 3.4347,-2.25126 8.3352,-5 4.9005,-2.74875 9.0727,-4.99772 9.2714,-4.99772 1.3793,0 8.3186,-5.53315 8.3186,-6.63289 0,-0.75191 -0.2737,-1.36711 -0.6082,-1.36711 -0.6055,0 -21.8558,12.01315 -26.1418,14.77837 -1.2375,0.79841 -2.25,1.2379 -2.25,0.97665 0,-0.26125 4.5,-3.54828 10,-7.30452 5.5,-3.75623 10,-7.19424 10,-7.64001 0,-2.02718 -4.2343,-0.31574 -14.2894,5.77559 -5.9794,3.62235 -11.1355,6.32235 -11.4578,6 -0.3224,-0.32234 -0.13,-0.58608 0.4275,-0.58608 0.5575,0 2.0393,-0.88952 3.2928,-1.9767 1.2536,-1.08719 4.5849,-3.44264 7.4031,-5.23434 2.8181,-1.7917 5.5738,-3.60234 6.1238,-4.02365 0.55,-0.42131 2.0764,-1.58672 3.3919,-2.58981 1.3156,-1.00309 2.2156,-2.32705 2,-2.94214 -0.3843,-1.09669 -2.914,0.33757 -23.0157,13.04925 -5.0293,3.18044 -9.2954,5.63156 -9.48,5.44694 -0.3201,-0.32016 22.237,-17.59019 27.0759,-20.72955 1.2716,-0.825 3.7101,-2.54286 5.419,-3.81746 l 3.1071,-2.31745 1.0009,2.63255 c 0.5505,1.44791 1.0009,3.03209 1.0009,3.52041 0,1.91272 2.3846,5.98195 3.5055,5.98195 0.6515,0 1.999,-0.9 2.9945,-2 0.9955,-1.1 2.1726,-2 2.6158,-2 0.4432,0 1.3744,2.75286 2.0693,6.11747 0.695,3.36461 1.8469,6.34132 2.5599,6.61491 0.7129,0.27359 2.7495,-0.21575 4.5256,-1.08741 2.9706,-1.45784 3.3296,-1.45173 4.4794,0.0762 2.1979,2.92075 1.3813,4.62134 -5.8965,12.27881 -10.4281,10.97219 -25.0852,28.75372 -35.3536,42.88992 -4.9499,6.81446 -11.3533,14.91446 -14.2297,18 -4.5121,4.84006 -5.2327,5.2947 -5.25,3.31233 -0.011,-1.26376 1.0423,-3.28876 2.3408,-4.5 1.2986,-1.21124 2.7073,-3.30415 3.1305,-4.65092 0.9757,-3.10533 28.4501,-39.70264 37.605,-50.092 3.7969,-4.30886 6.9035,-8.08743 6.9035,-8.39681 0,-1.00579 -2.4363,-0.5834 -5.3248,0.92317 -1.5537,0.81035 -6.9537,3.08046 -12,5.04468 -5.0464,1.96423 -11.2002,4.43425 -13.6752,5.48895 -4.3727,1.86339 -22.5092,8.88989 -32.3824,12.54568 -2.6853,0.99431 -5.9521,2.96145 -7.2595,4.37142 -1.9409,2.09319 -3.2952,2.56358 -7.3809,2.56358 -4.3225,0 -5.4044,-0.42868 -7.9464,-3.1486 -2.8899,-3.09214 -3.1541,-3.16041 -14.7367,-3.80761 -6.4868,-0.36246 -13.1441,-0.82747 -14.7941,-1.03335 -1.65,-0.20589 -6.825,-0.67316 -11.5,-1.03838 -9.5808,-0.74848 -42.0371,-5.16534 -44.2796,-6.02585 -1.487,-0.57062 -4.7204,1.92191 -4.7204,3.63881 0,1.82978 -11.3508,26.6616 -21.1323,46.2305 -5.4476,10.89854 -9.657,20.21639 -9.3542,20.70633 0.7087,1.14676 3.6316,0.0502 5.2238,-1.95988 0.6805,-0.85908 2.5433,-3.82949 4.1394,-6.60091 1.5962,-2.77141 5.0098,-6.766 7.5859,-8.87687 3.2156,-2.63494 4.3606,-4.16102 3.6529,-4.86868 -0.7076,-0.70766 -1.5218,-0.62323 -2.5973,0.26937 -0.8616,0.71507 -1.7384,1.1235 -1.9484,0.90762 -0.21,-0.21587 4.1884,-9.3925 9.7742,-20.3925 l 10.156,-20 6,0.31402 c 3.3,0.17271 8.7,0.75916 12,1.30324 9.9558,1.64142 35.2247,4.04019 48.25,4.58037 13.4701,0.55862 13.1934,0.37693 10.8192,7.10628 -1.7488,4.95673 -18.4154,40.04228 -19.5692,41.19611 -0.275,0.275 -3.2316,5.9 -6.5702,12.5 -21.559,42.6194 -25.3075,48.5 -30.9151,48.5 -3.4122,0 -3.1802,1.87205 0.3862,3.11528 l 2.9008,1.01124 -3.3211,5.18674 c -1.8266,2.85271 -4.4777,6.87424 -5.8913,8.93674 l -2.5703,3.75 -7.7595,0.0317 c -4.2677,0.0174 -12.2595,0.68369 -17.7595,1.48056 -11.3233,1.64057 -40.2165,1.94734 -34.75,0.36895 1.9049,-0.55003 3.25,-1.59436 3.25,-2.52336 0,-1.28796 -0.7964,-1.47746 -4.25,-1.01132 -2.3375,0.31549 -6.95,0.82476 -10.25,1.1317 -5.3886,0.50121 -4.8281,0.23908 5.5,-2.57237 15.115,-4.11451 18.322,-4.49415 21.1618,-2.50511 3.2486,2.27543 6.3804,1.98028 8.5048,-0.80151 l 1.8334,-2.40076 7.5581,1.58137 c 8.2213,1.72011 12.3908,1.20083 9.8694,-1.22915 -1.7956,-1.73058 -12.195,-6.08698 -18.0173,-7.54765 -4.0404,-1.01362 -5.2488,-0.80238 -14.4102,2.519 -11.497,4.16812 -24.4594,7.46076 -29.4113,7.47093 -2.9615,0.006 -2.0385,-0.66586 7,-5.09563 15.2683,-7.48306 19.4513,-8.93694 25.9769,-9.0288 4.8363,-0.0681 5.9732,-0.4153 6.4684,-1.97558 0.811,-2.55529 2.466,-2.40519 2.466,0.22365 0,1.74196 0.3983,1.98902 2.25,1.39573 4.6844,-1.50088 8.8932,-1.69567 11.6817,-0.54065 2.1922,0.90804 3.4053,0.9183 5.0415,0.0426 1.5424,-0.82548 2.5226,-0.84775 3.4497,-0.0784 3.1211,2.59031 15.2753,5.03252 16.91,3.39783 1.2077,-1.20774 -16.4291,-9.14526 -22.7763,-10.25059 -8.5007,-1.48032 -18.3509,-1.35967 -23.6477,0.28963 -2.4249,0.75508 -10.9339,4.52237 -18.9089,8.37178 -28.2527,13.63711 -26.2596,12.94515 -38.7411,13.44973 -6.1825,0.24994 -11.1325,0.35245 -11,0.22781 0.1326,-0.12465 4.4845,-1.88101 9.6708,-3.90304 7.7785,-3.03265 9.8443,-3.48754 11.7971,-2.59778 4.2907,1.955 6.6125,1.15167 16.7461,-5.79414 5.5149,-3.78002 13.8891,-8.95502 18.6093,-11.5 7.3497,-3.96263 9.4033,-4.62713 14.2997,-4.62713 6.0404,0 10.6259,-1.7454 12.8218,-4.88038 2.1612,-3.08559 27.5273,-7.32706 30.7963,-5.14946 1.186,0.79007 0.9347,1.00242 -1.2008,1.01453 -5.2722,0.0299 -12.7992,2.14592 -12.7992,3.59817 0,2.40032 11.7158,1.88773 15.9577,-0.69818 3.1841,-1.94114 3.3173,-2.21044 1.6834,-3.40519 -0.9759,-0.71355 -1.7443,-1.56334 -1.7077,-1.88842 0.037,-0.32509 0.067,-0.96378 0.067,-1.41932 0,-1.84275 -9.6192,-2.96725 -18.3797,-2.14861 -9.1836,0.8582 -15.7037,0.21744 -24.5651,-2.4141 -5.4122,-1.60727 -5.5457,-1.54574 -6.2592,2.88497 -0.4078,2.53242 -7.7819,7.49752 -19.296,12.99218 -8.4401,4.02772 -23.9686,9.51381 -26.9292,9.51381 -0.7292,0 -1.8349,0.61325 -2.4569,1.36278 -0.6221,0.74953 -3.9397,1.65764 -7.3725,2.01803 -3.4327,0.36038 -10.1633,1.45658 -14.9568,2.436 -4.7935,0.97942 -8.6185,1.69536 -8.5,1.59099 0.1185,-0.10437 3.3654,-2.29752 7.2154,-4.87367 3.85,-2.57615 9.025,-6.8617 11.5,-9.52344 2.475,-2.66174 6.75,-6.0742 9.5,-7.58324 15.4157,-8.45924 24.053,-12.42745 27.0498,-12.42745 1.8085,0 4.5621,-0.64816 6.1192,-1.44035 1.557,-0.7922 6.164,-2.7047 10.2377,-4.25 5.9682,-2.26397 8.1882,-3.73601 11.4303,-7.57931 5.6353,-6.68009 4.0659,-7.79952 -5.3294,-3.80147 -3.9821,1.69455 -9.7754,3.36084 -12.8739,3.70287 -7.2076,0.79561 -14.1581,3.71119 -21.2934,8.93209 -3.6277,2.65441 -8.8335,5.15279 -14.5,6.95884 -11.8574,3.77929 -13.9149,4.87558 -20.3723,10.85488 -11.5131,10.66066 -20.1298,17.35573 -23.967,18.62214 -6.1208,2.02002 -7.4031,3.997 -6.639,10.23535 1.612,13.16122 3.4069,20.15942 5.6329,21.96194 2.9728,2.40722 5.1608,2.27805 12.7341,-0.75177 4.0892,-1.63591 9.6922,-2.85046 15.5785,-3.37687 5.0559,-0.45215 10.4553,-1.32597 11.9987,-1.94183 2.2136,-0.88327 3.4174,-0.80368 5.7003,0.37687 3.294,1.70337 10.6229,1.9682 14.4284,0.52137 2.8902,-1.09884 3.0813,-0.82424 1.353,1.94334 -0.6667,1.06752 -1.0042,2.13397 -0.75,2.36989 0.2541,0.23591 3.1621,0.0202 6.4621,-0.47939 13.7897,-2.08758 25.1421,-2.80589 44.75,-2.83149 18.3881,-0.024 20.75,-0.21018 20.75,-1.63551 0,-1.25449 0.6039,-1.45684 2.7444,-0.9196 3.2696,0.8206 5.2556,2.32315 5.2556,3.97614 0,1.7617 4.1069,5.19691 7.0372,5.88626 3.4435,0.81011 11.9674,-1.56177 17.7268,-4.93272 2.6048,-1.52459 7.661,-5.86835 11.236,-9.65281 3.575,-3.78446 8.075,-7.83989 10,-9.01206 1.925,-1.17218 3.7398,-2.47351 4.033,-2.89186 0.2931,-0.41835 6.5784,-3.8171 13.9673,-7.55279 13.0212,-6.58322 13.5228,-6.956 16.3071,-12.1188 1.5799,-2.92966 2.6344,-5.56488 2.3432,-5.85606 -0.5688,-0.56885 -3.722,2.63869 -7.4767,7.60564 -1.2793,1.69239 -2.981,3.07707 -3.7815,3.07707 -0.8005,0 -7.1255,2.7 -14.0556,6 -6.93,3.3 -12.7304,6 -12.8897,6 -0.1593,0 3.4054,-6.1875 7.9216,-13.75 14.1045,-23.6182 20.0913,-34.6826 34.4942,-63.75 11.3835,-22.97361 12.8908,-26.5 11.3269,-26.5 -1.3426,0 -2.5043,1.64773 -6.1668,8.74726 -1.7726,3.436 -3.6227,6.00013 -4.1115,5.69807 -0.4887,-0.30206 -0.6551,0.0593 -0.3697,0.80304 0.659,1.71724 -5.5029,4.75163 -9.649,4.75163 -2.3607,0 -2.9617,0.39078 -2.6911,1.75 0.3738,1.87796 4.688,2.28974 8.1341,0.77638 1.32,-0.57969 0.029,2.67486 -4.5964,11.58371 -5.8624,11.29223 -6.823,12.58828 -10.843,14.62897 -5.6181,2.85196 -14.969,4.59342 -20.0527,3.73453 -2.1703,-0.36667 -3.8105,-0.97637 -3.6448,-1.35488 0.1656,-0.37852 6.5819,-13.14522 14.2585,-28.37046 13.579,-26.93182 14.0263,-27.66281 16.5,-26.96525 1.3984,0.39435 5.4676,0.70072 9.0426,0.68082 7.8986,-0.044 14.7043,-3.39107 19.8401,-9.75749 2.587,-3.20696 5.1798,-4.89276 11.5,-7.47721 4.4879,-1.83521 9.5099,-3.9465 11.1599,-4.69177 3.9143,-1.76799 15.7398,-6.53735 16.2092,-6.53735 0.2004,0 -2.0569,3.4875 -5.0162,7.75 -2.9593,4.2625 -8.4618,12.25 -12.2277,17.75 -12.493,18.24555 -16.0962,22.9987 -17.5377,23.13465 -0.7852,0.0741 -1.9473,0.18656 -2.5824,0.25 -0.7588,0.0758 -0.9887,1.57295 -0.6704,4.36535 0.3355,2.94303 0.1835,3.82079 -0.4942,2.85428 -1.8975,-2.70591 -4.4719,-0.11179 -17.804,17.94052 -1.1678,1.58132 -2.3822,2.61623 -2.6987,2.29979 -0.3164,-0.31645 -1.7199,0.71407 -3.1188,2.29003 -3.7291,4.20099 -8.9046,12.35322 -8.2549,13.00287 0.8648,0.86483 14.6851,-8.96264 14.6908,-10.44651 0,-0.71996 0.3861,-1.07346 0.852,-0.78555 0.9803,0.60586 4.2777,-2.80409 9.5785,-9.90543 2.0528,-2.75 5.3591,-6.34222 7.3474,-7.98272 l 3.6151,-2.98272 -1.9096,3.23272 c -1.0503,1.778 -2.2626,3.23272 -2.694,3.23272 -0.4314,0 -0.6719,0.38627 -0.5344,0.85838 0.1375,0.4721 -1.7121,3.95297 -4.1103,7.73526 -3.6121,5.69685 -4.2091,7.30673 -3.4793,9.38191 1.1556,3.2861 3.6876,3.68675 5.1406,0.81344 0.6367,-1.25894 2.3172,-4.31399 3.7346,-6.78899 1.4173,-2.475 3.2598,-5.77932 4.0944,-7.34293 2.3463,-4.39572 2.7199,-2.44298 0.7365,3.84912 -1.289,4.08924 -3.0157,6.84686 -6.16,9.83786 -9.7915,9.31424 -12.2535,12.01487 -11.9057,13.05962 0.691,2.0759 3.206,1.61302 6.2059,-1.1422 1.6537,-1.51881 3.9037,-3.43647 5,-4.26147 1.7971,-1.35237 1.8725,-1.34497 0.7659,0.0752 -3.2413,4.15984 -12.6318,12.82084 -13.3916,12.35126 -1.4387,-0.88918 -10.0962,3.42626 -9.6429,4.80666 0.638,1.94318 6.2648,2.12116 8.1288,0.25713 0.8898,-0.88977 2.058,-1.34568 2.5961,-1.01314 2.2332,1.38021 7.3606,-2.91094 12.0361,-10.07308 5.7056,-8.74011 9.7682,-18.93748 13.109,-32.90403 1.5934,-6.6618 2.4991,-9.06561 2.7131,-7.20093 0.1766,1.53948 -0.3982,5.66731 -1.2774,9.17294 -5.022,20.02457 -13.4474,35.33443 -23.5236,42.74451 -2.1215,1.56016 -5.8896,6.28812 -8.6411,10.84221 l -4.8791,8.07564 -10.7251,5.36826 c -15.258,7.63714 -23.9066,13.51026 -33.7117,22.89317 -9.3701,8.96662 -13.2469,11.64628 -20.0632,13.86786 -6.0816,1.98215 -8.9918,2.45732 -12.227,1.99642 z m -288.4653,-13.27146 c 12.8316,-2.53222 24.0279,-4.84111 29.1923,-6.01999 6.6069,-1.50815 29.9152,-3.96863 37.5951,-3.96863 8.0235,0 21.3558,1.41395 33.4049,3.54275 14.1947,2.50788 31.4609,3.89632 32.7257,2.63159 1.1829,-1.18297 -0.1872,-11.31262 -2.2717,-16.79546 -0.88,-2.31436 -1.3734,-2.54132 -4.2252,-1.94319 -6.7303,1.41162 -34.7478,3.5068 -47.2288,3.5318 -25.9549,0.052 -67.6149,-3.73118 -75.8151,-6.88484 -11.1973,-4.30632 -23.538,4.84933 -18.7059,13.87809 0.7166,1.33904 0.5668,2.1713 -0.559,3.10562 -1.1567,0.96002 -1.3708,2.28726 -0.8636,5.35501 0.3709,2.24324 0.874,4.41613 1.118,4.82863 0.7151,1.2089 4.7759,0.88126 15.6333,-1.26138 z m -5.3077,-6.81157 c 0,-0.95262 -0.7271,-2.77009 -1.6157,-4.03881 -2.7106,-3.8699 -0.6306,-4.61828 13.4152,-4.82669 10.7341,-0.15927 11.8676,-0.0415 7.3213,0.76038 -6.8293,1.20458 -13.3724,4.08874 -16.6015,7.31784 -2.0863,2.08637 -2.5193,2.22167 -2.5193,0.78728 z m 81.7532,-23.06555 c 6.3863,-3.28257 18.6601,-15.35932 28.0622,-27.6115 2.7597,-3.59635 7.4572,-10.94543 10.5465,-16.5 3.4118,-6.13419 3.6159,-6.3177 3.6267,-3.26073 0.01,1.7816 -0.8884,5.6066 -1.9881,8.5 -2.5599,6.73524 -2.5561,6.76073 0.9995,6.76073 2.8768,0 7,-2.92664 7,-4.96862 0,-0.53273 0.6476,-0.72012 1.439,-0.41641 1.0317,0.3959 1.6363,-0.49962 2.1361,-3.16382 1.1024,-5.87615 2.1076,-2.19086 2.8774,10.54885 0.6694,11.07895 2.6988,21.13967 4.7907,23.75 1.495,1.86561 4.2789,1.52584 9.6029,-1.17199 7.6249,-3.86385 8.0252,-4.87116 3.7962,-9.55223 -4.3414,-4.80539 -6.3105,-9.25847 -8.1918,-18.52578 -1.346,-6.6304 -4.604,-37.67986 -4.0155,-38.26838 0.152,-0.15191 1.0703,1.87132 2.0408,4.49609 2.7453,7.42481 8.4521,17.23876 12.7109,21.85905 3.7309,4.04749 4.0935,4.20108 9.7931,4.14739 l 5.9186,-0.0557 0.3008,-3.5892 c 0.2387,-2.84861 0.7651,-3.65514 2.5508,-3.90875 3.1375,-0.44559 2.918,1.97427 -0.7722,8.51292 -2.3698,4.19904 -2.8016,5.76741 -2,7.26511 0.5622,1.05047 1.0222,3.06457 1.0222,4.47573 0,2.89384 1.5356,3.29596 4.0157,1.05154 1.6517,-1.49478 8.696,-3.60204 16.4843,-4.93117 5.3551,-0.91389 10.7649,-3.79113 15.6429,-8.31987 2.2125,-2.05412 5.223,-4.35664 6.6899,-5.11671 1.467,-0.76007 2.8373,-1.53013 3.0451,-1.71125 0.2079,-0.18112 -2.3235,-4.50924 -5.6254,-9.61805 -3.3018,-5.10881 -8.3889,-13.56375 -11.3048,-18.78875 -2.9158,-5.225 -6.3088,-11.3 -7.54,-13.5 -1.2312,-2.2 -3.7187,-6.8125 -5.5279,-10.25 -1.8091,-3.4375 -3.8281,-6.25 -4.4867,-6.25 -1.3398,0 -3.3931,5.13146 -3.3931,8.47975 0,1.19971 -1.1231,4.39506 -2.4958,7.10077 -2.9859,5.88553 -3.004,6.22362 -0.5042,9.41948 2.4207,3.09473 2.5716,8.96621 0.3945,15.35553 -0.883,2.5915 -1.4233,6.27166 -1.2008,8.17814 0.3531,3.02404 0.125,3.46633 -1.7875,3.46633 -1.2057,0 -2.451,-0.67431 -2.7672,-1.49847 -0.3163,-0.82416 -2.9519,-2.56781 -5.857,-3.87477 -8.4191,-3.78765 -11.051,-7.38457 -15.8242,-21.62676 -5.89,-17.5745 -6.1046,-18.36531 -4.6623,-17.17706 0.6625,0.54574 4.4305,2.60884 8.3735,4.58466 12.1705,6.09868 17.7224,4.61466 21.3464,-5.70587 4.1928,-11.94005 3.6678,-17.70173 -1.6128,-17.70173 -2.0786,0 -2.283,0.34802 -1.7549,2.98832 1.6729,8.36441 -7.3975,10.71284 -18.5743,4.80914 -3.3347,-1.76139 -7.6216,-4.79889 -9.5265,-6.75 l -3.4634,-3.54746 6.7083,-0.0749 c 10.4874,-0.11701 18.3452,-5.25008 21.1783,-13.83466 2.3025,-6.97647 -3.1743,-17.05613 -8.905,-16.38907 -1.6999,0.19787 -2.4372,0.80455 -2.1859,1.79858 0.2085,0.825 0.5929,3.52973 0.8542,6.01051 0.7069,6.71224 -1.6863,9.24447 -8.8025,9.3137 -2.987,0.0291 -7.1267,-0.51965 -9.1994,-1.21935 l -3.7685,-1.27218 2.67,-3.16634 c 6.1706,-7.3175 6.7989,-13.00567 1.9989,-18.09514 -2.7939,-2.96237 -4.0644,-3.57115 -7.4529,-3.57115 -5.2619,0 -9.0829,1.76908 -9.7748,4.52559 -0.3013,1.20049 -0.1053,4.61085 0.4356,7.57856 0.5408,2.96772 0.7604,5.62085 0.4878,5.89585 -0.2725,0.275 -2.8208,-2.01806 -5.6628,-5.09569 -2.842,-3.07763 -6.6839,-6.37995 -8.5375,-7.3385 -9.4836,-4.90413 -18.4197,5.66469 -11.8773,14.04738 3.1646,4.05472 6.5717,7.01836 11.5,10.00299 2.3375,1.41563 4.25,2.9582 4.25,3.42795 0,1.9378 -7.0353,6.00642 -13.0565,7.55079 -12.3623,3.17074 -28.6059,-0.24124 -41.0114,-8.61446 -3.5376,-2.38779 -9.8071,-7.40867 -13.9321,-11.15751 -8.0134,-7.28263 -10.6366,-8.18634 -14,-4.82295 -5.1308,5.13079 -0.025,12.36544 16.5,23.37842 21.3485,14.22779 39.0787,16.22932 62.75,7.08373 3.4404,-1.32923 1.7686,2.24674 -3.241,6.93271 -6.1078,5.71313 -11.6497,8.20237 -24.009,10.78413 -21.3328,4.45625 -46.2586,-2.00372 -58.9422,-15.27594 -3.4196,-3.57826 -8.0578,-12.6967 -8.0578,-15.84112 0,-2.93956 -2.158,-2.55017 -5.5629,1.00373 -2.4839,2.59261 -2.9371,3.87226 -2.9371,8.29286 0,4.63434 0.4755,5.82432 4.1921,10.49224 7.2756,9.13774 17.3482,16.06418 29.953,20.59712 7.448,2.67846 23.6044,5.5362 31.3549,5.54605 11.1666,0.0142 27.6088,-5.01884 36.0637,-11.0393 1.615,-1.14995 2.9363,-1.9194 2.9363,-1.70988 0,0.93171 -5.5289,11.79949 -8.7784,17.25525 -8.1957,13.75985 -17.7128,21.76918 -30.4725,25.64484 -9.6627,2.93494 -26.2176,2.24946 -35.4618,-1.46837 -15.3494,-6.17321 -24.9703,-18.17454 -28.1992,-35.17647 -1.4468,-7.61805 -3.1828,-13.64773 -4.3907,-15.25 -2.3851,-3.16393 -2.8771,-0.75484 -2.4505,12 0.5082,15.19388 1.9908,20.96359 7.4116,28.84404 9.5829,13.93114 23.3134,21.3714 41.8415,22.67305 4.95,0.34775 8.1876,0.80521 7.1947,1.01657 -0.993,0.21137 -1.6248,0.90901 -1.404,1.55032 0.6579,1.91139 13.8106,0.96981 20.4045,-1.46073 9.7007,-3.57571 21.0099,-12.49997 32.6081,-25.7314 2.5832,-2.94699 4.6967,-5.10372 4.6967,-4.79274 0,1.51127 -8.9796,20.09476 -13.1849,27.28634 -11.7553,20.10325 -21.8372,29.61828 -34.9395,32.97494 -17.7889,4.5573 -35.5608,-5.7982 -48.8756,-28.47936 -4.9005,-8.34782 -8.9449,-12.51945 -10.566,-10.8984 -0.3066,0.30663 -0.046,5.20233 0.5783,10.87934 1.3159,11.95873 2.8233,14.62848 14.6433,25.93514 12.3272,11.79177 17.0748,13.96007 32.8444,15.00045 13.7215,0.90526 18.4993,0.50746 23.2532,-1.93606 z m 47.665,1.28151 c 2.4755,-0.94994 1.9495,-2.12395 -3.5633,-7.95287 -4.465,-4.72113 -7.8549,-6.81013 -7.8549,-4.84057 0,1.14561 8.2831,13.40043 9.0575,13.40043 0.4284,0 1.4907,-0.27314 2.3607,-0.60699 z m -128.9092,-5.76641 c 1.1131,-1.69885 1.3676,-3.54624 0.8953,-6.5 -0.6355,-3.97395 0.641,-5.79094 2.0209,-2.8766 0.3255,0.6875 0.3662,-5.275 0.091,-13.25 -0.3821,-11.05038 -1.3198,-18.54439 -3.9417,-31.5 -3.3571,-16.58862 -7.5734,-35.35066 -9.5769,-42.61602 -1.6453,-5.96639 -1.2141,-14.5478 0.9384,-18.67382 1.0645,-2.04059 4.2024,-5.90572 6.9732,-8.58919 5.9335,-5.74647 9.0938,-11.72537 9.0847,-17.18669 -0.01,-5.96777 -3.2763,-10.10721 -11.4712,-14.53791 -1.6379,-0.8855 -3.6874,-2.91193 -4.5547,-4.50318 -3.4809,-6.3868 -12.7907,-8.1331 -20.7554,-3.89319 -2.5829,1.375 -5.2394,2.5 -5.9033,2.5 -3.4123,0 -10.3088,14.75228 -10.3088,22.05158 0,6.25471 3.8933,13.62969 11.0479,20.92758 3.8183,3.89488 7.8891,8.93712 9.0461,11.20499 4.4088,8.64201 10.6185,34.22381 12.924,53.24233 0.5952,4.90957 1.2414,9.18457 1.436,9.5 0.1946,0.31544 0.8503,8.22352 1.4571,17.57352 0.6068,9.35 1.3775,19.8125 1.7126,23.25 l 0.6093,6.25 h 3.3604 c 2.4332,0 3.7896,-0.6549 4.9156,-2.3734 z m 198.9029,-4.37183 c 0.4099,-0.40987 3.9724,-1.91691 7.9167,-3.34898 6.3423,-2.30275 7.5471,-3.16902 10.4214,-7.49334 3.6185,-5.44395 4.0476,-7.41245 1.6157,-7.41245 -2.3159,0 -20.0969,8.5576 -24.0569,11.57804 -3.0848,2.35287 -4.1981,5.19934 -2.6421,6.75529 0.9042,0.9042 5.8197,0.84695 6.7452,-0.0786 z m 79.9128,-2.91276 c 1.404,-1.40405 -1.7547,-3.34201 -5.4471,-3.34201 -3.6537,0 -5.072,1.4723 -3.2109,3.33333 0.8617,0.86172 7.798,0.86867 8.658,0.009 z m -211.9213,-3.85118 c 5.6642,-1.71828 11.5966,-5.88692 11.5966,-8.14871 0,-1.02703 -0.5538,-1.34359 -1.6287,-0.93109 -5.1358,1.97079 -11.3084,2.79065 -17.6137,2.33951 -12.6942,-0.90826 -17.2061,3.08758 -7.2483,6.41929 6.3182,2.11399 8.8069,2.16763 14.8941,0.321 z m 163.6722,-7.41256 c 1.8149,-1.81494 2.6923,-3.5196 2.3161,-4.5 -1.3113,-3.41699 -5.6311,-0.50155 -6.9222,4.67173 -0.9111,3.65058 0.8494,3.58494 4.6061,-0.17173 z m 139.4244,-1.12412 c 1.1,-0.47548 3.6938,-1.53935 5.7641,-2.36417 3.9718,-1.58247 5.6822,-4.04367 3.9877,-5.73822 -1.752,-1.75198 -15.2518,5.93532 -15.2518,8.68495 0,1.39766 1.217,1.26876 5.5,-0.58256 z m -208.5,0.23441 c 0,-1.21198 -4.1198,-5.40211 -4.7206,-4.80125 -1.2655,1.26548 0.8565,5.61269 2.7397,5.61269 1.0895,0 1.9809,-0.36515 1.9809,-0.81144 z m 137.9963,-4.43856 c 0,-1.66524 -3.7447,-7.79321 -6.1466,-10.07185 -4.1159,-3.90484 -10.8126,-5.97082 -17.3692,-5.35856 -6.8249,0.63732 -11.7458,2.45104 -11.1314,4.10272 0.2205,0.59273 1.0197,0.87438 1.7759,0.62588 2.5703,-0.84457 14.02,-1.22862 16.6853,-0.55967 1.4597,0.36636 5.2137,3.33131 8.3424,6.58879 5.5794,5.80922 7.851,7.16248 7.8436,4.67269 z m 73.9504,-3.72322 c 4.3463,-2.18527 8.6113,-4.9854 9.4778,-6.22251 2.8012,-3.99921 1.4679,-8.80427 -2.443,-8.80427 -1.4318,0 -17.9815,16.95464 -17.9815,18.42154 0,1.412 3.6183,0.28991 10.9467,-3.39476 z m -74.1868,-10.55327 c 4.8498,-4.15122 9.4181,-12.99263 8.5546,-16.55618 -0.3222,-1.32953 -1.7097,-3.62951 -3.0833,-5.11107 l -2.4976,-2.69373 3.0636,-3.06361 c 3.2764,-3.27633 6.2028,-8.40031 6.2028,-10.86059 0,-1.48963 -5.2026,-19.13839 -7.2041,-24.43833 -0.5712,-1.5125 -1.5464,-2.72714 -2.1672,-2.69921 -0.6208,0.0279 -3.5421,3.43489 -6.4919,7.571 -5.8874,8.25533 -8.6753,15.82478 -9.6792,26.28059 -0.5659,5.89325 -0.4011,6.84356 1.5434,8.9013 2.2713,2.40358 4.7897,2.44739 4.0997,0.0713 -1.2043,-4.14756 -1.131,-6.9013 0.2399,-9.01222 0.8439,-1.29953 2.4517,-5.68937 3.5727,-9.75521 1.121,-4.06583 2.2741,-7.62833 2.5625,-7.91666 0.2883,-0.28834 0.5242,5.08026 0.5242,11.9302 0,12.35364 0.024,12.48246 2.9594,15.91666 3.4393,4.02374 3.7063,6.89993 1.1609,12.5036 -1.7116,3.76808 -6.4754,8.74368 -9.2604,9.672 -1.2363,0.41209 -0.3678,2.78663 1.0191,2.78663 0.4186,0 2.615,-1.58692 4.8809,-3.52649 z m 2.6149,-36.22675 c -0.1168,-7.23304 -0.037,-7.54782 1.2049,-4.74676 1.4232,3.20992 1.8049,8.33427 0.8133,10.91821 -1.2588,3.2805 -1.897,1.3291 -2.0182,-6.17145 z m -3.3748,31.12132 c 0,-1.69325 -6.438,-8.36808 -8.0712,-8.36808 -0.5108,0 -0.9288,-0.52707 -0.9288,-1.17126 0,-1.9519 -3.181,-4.82874 -5.3393,-4.82874 -3.0257,0 -10.0654,3.68496 -14.1007,7.38115 -5.5717,5.10349 -4.869,5.96994 4.19,5.16635 4.2625,-0.37811 9.4747,-1.13334 11.5827,-1.6783 3.0636,-0.79199 4.3286,-0.6659 6.3038,0.62825 1.359,0.8905 2.72,2.26786 3.0242,3.06082 0.7572,1.97324 3.3393,1.82618 3.3393,-0.19019 z m -21,-7.31151 c 1.3484,-0.92225 9.9204,-1.58048 8.9167,-0.6847 -0.2292,0.20453 -2.6667,0.67309 -5.4167,1.04125 -3.5507,0.47536 -4.5652,0.37201 -3.5,-0.35655 z m -204.8634,-4.34028 c 3.9323,-1.64301 10.8634,-7.3645 10.8634,-8.96748 0,-2.3989 -25.0498,0.89861 -32.7976,4.31741 -10.7827,4.75798 10.7503,9.32299 21.9342,4.65007 z m 95.3791,-11.7878 c 0.8285,-3.77187 0.646,-3.96298 -4.4331,-4.64424 -4.7346,-0.63504 -5.1634,0.38916 -2.0145,4.81138 2.7655,3.88384 5.5739,3.81104 6.4476,-0.16714 z m -138.6419,-2.47572 c 3.4147,-2.87332 3.273,-4.32423 -0.6552,-6.7092 -1.4952,-0.90783 -4.8938,-3.73377 -7.5525,-6.27987 -2.6586,-2.5461 -5.0673,-4.39583 -5.3526,-4.11051 -0.2853,0.28532 -0.2203,2.68507 0.1446,5.33279 0.7149,5.18773 6.4371,14.31402 8.9749,14.31402 0.7775,0 2.7758,-1.14626 4.4408,-2.54723 z m 373.3178,-17.70277 c 2.2757,-2.14806 4.3299,-5.7022 6.0587,-10.48239 3.8807,-10.72999 0.3663,-10.53874 -4.25,0.23128 -1.1784,2.74939 -3.155,6.34939 -4.3923,8 -3.5347,4.7153 -3.8622,5.50111 -2.2927,5.50111 0.7883,0 2.9827,-1.4625 4.8763,-3.25 z m -362.1916,-19.75 c 2.6809,-2.68087 2.5661,-3.10508 -1.609,-5.94894 -1.9775,-1.34692 -6.3462,-5.03423 -9.7082,-8.19401 -4.3648,-4.10217 -6.456,-5.46021 -7.313,-4.74895 -2.8566,2.37073 2.8478,13.09523 9.3857,17.64574 5.446,3.79049 6.5512,3.93947 9.2445,1.24616 z m 50.5699,-17.23653 c 0.3724,-0.37247 0.4107,-1.37162 0.085,-2.22034 -0.4323,-1.12635 -2.0459,-1.54313 -5.9744,-1.54313 -2.9602,0 -6.8072,-0.49679 -8.549,-1.10398 -4.3311,-1.50981 -8.5354,-0.44004 -7.256,1.84622 1.5045,2.68833 7.0873,4.22969 14.3207,3.95383 3.683,-0.14046 7.0011,-0.56013 7.3736,-0.9326 z m 103.9301,-2.28495 c 8.0875,-2.59015 14.634,-7.14637 18.0553,-12.56612 4.2893,-6.79464 3.06,-12.4514 -4.4276,-20.37512 -2.618,-2.7705 -5.5846,-6.29778 -6.5924,-7.83839 -4.0095,-6.12946 -11.6675,-7.29936 -20.9394,-3.19889 -3.4791,1.53864 -7.5058,2.5 -10.4713,2.5 -4.187,0 -5.9197,0.73534 -13.2215,5.61077 -4.6217,3.08593 -8.7348,6.18553 -9.1401,6.88802 -0.7847,1.35978 0.9577,7.50121 2.1281,7.50121 0.3825,0 3.376,-2.29057 6.6522,-5.09015 8.0295,-6.86138 14.6269,-9.78069 23.8694,-10.56196 6.0765,-0.51366 7.9846,-0.31761 10.0444,1.03205 3.4475,2.25886 3.3422,5.40573 -0.2071,6.18829 -7.2092,1.58952 -13.2112,3.56003 -13.8139,4.53518 -0.3661,0.59242 0.9132,2.724 2.8431,4.73686 4.3674,4.5553 7.7208,11.12239 7.7208,15.11989 0,2.21683 0.4738,3.04807 1.75,3.07025 1.6667,0.029 1.6667,0.0789 0,1.04969 -0.9625,0.5606 -1.75,1.72006 -1.75,2.57658 0,1.0935 0.5212,1.34072 1.75,0.83011 0.9625,-0.39996 3.55,-1.30368 5.75,-2.00827 z m -106.6772,-16.50051 c -0.1775,-1.80197 -0.9978,-3.63485 -1.8228,-4.07306 -0.825,-0.43821 -7.125,-2.59443 -14,-4.79161 -6.875,-2.19718 -26.675,-8.75823 -44,-14.5801 -17.325,-5.82187 -36.1355,-11.96811 -41.8011,-13.65831 l -10.3011,-3.07309 -4.1989,2.72714 c -8.0609,5.23544 -9.6808,7.37335 -7.8163,10.31532 0.704,1.11083 1.3875,1.06741 3.935,-0.25 4.2941,-2.22055 13.2967,-2.04777 18.5744,0.35649 2.3552,1.07293 6.5591,3.99793 9.342,6.5 7.1882,6.46278 9.7134,6.06036 4.1091,-0.65483 -2.3887,-2.86222 -3.7823,-4.86171 -3.0969,-4.4433 0.6855,0.4184 2.0355,0.93879 3,1.15643 6.7845,1.53079 24.7267,7.41886 41.2538,13.53826 26.136,9.6772 45.3182,15.87044 46.3228,14.95596 0.4526,-0.41195 0.6776,-2.22333 0.5,-4.0253 z m 29.3734,-23.07893 c -0.1671,-6.26949 -0.6882,-11.78515 -1.1579,-12.25702 -0.475,-0.47702 -2.5098,-0.31154 -4.5831,0.37273 -5.1964,1.71498 -16.8875,0.78959 -22.4534,-1.77726 -2.474,-1.14096 -4.6912,-1.88146 -4.9271,-1.64557 -0.2359,0.2359 0.8024,1.71407 2.3073,3.28483 3.7792,3.94469 12.0496,7.91891 18.618,8.94664 l 5.5,0.86055 -3,1.29567 c -1.65,0.71262 -5.25,1.83017 -8,2.48344 -5.8134,1.381 -6.8955,3.57643 -3.0158,6.11849 2.2277,1.4597 3.1835,1.53496 6.5777,0.51802 2.1842,-0.6544 5.627,-2.63202 7.6506,-4.39471 3.5126,-3.05958 3.7348,-2.24129 0.4337,1.59672 -1.4255,1.65731 -1.3132,1.99464 1.4021,4.21166 1.6234,1.32552 3.4017,2.26938 3.9517,2.09747 0.6137,-0.19182 0.8826,-4.71644 0.6962,-11.71166 z m 22.7014,-1.45602 c -1.9136,-1.91358 -3.9708,-2.69833 -8.2247,-3.13737 -3.7983,-0.39202 -5.6729,-0.22383 -5.6729,0.50895 0,1.89408 5.1493,6.33994 8.8996,7.68377 3.2181,1.15317 3.8101,1.08876 5.5752,-0.60666 1.9632,-1.8858 1.9599,-1.9116 -0.5772,-4.44869 z m 14.8353,0.85829 c 0.4606,-1.38185 -5.2891,-3.68564 -7.286,-2.91936 -1.39,0.53339 -1.3164,0.99251 0.5873,3.666 1.9864,2.78963 2.3585,2.93519 4.2662,1.66855 1.1495,-0.76324 2.2441,-1.85007 2.4325,-2.41519 z m -85.9985,0.13701 c 3.3061,-2.1662 2.7871,-4.13166 -1.6946,-6.41804 -4.7226,-2.40932 -11.1592,-2.59511 -17.1144,-0.49399 -8.8753,3.13136 -10.6919,7.4401 -3.1754,7.5313 2.6125,0.0317 6.55,0.40547 8.75,0.83062 5.1554,0.99626 10.3736,0.42459 13.2344,-1.44989 z m 106.3664,-6.5715 c 3.9609,-1.32038 6.8454,-4.46705 6.877,-7.50203 0.031,-2.94647 -3.1459,-12.70166 -4.4284,-13.59952 -1.4028,-0.98209 -2.7473,-0.92576 -4.5096,0.18895 -1.2568,0.79492 -1.2159,1.19365 0.2931,2.86114 1.5967,1.76433 1.6082,1.99322 0.1285,2.56104 -2.1225,0.81448 -5.9527,0.79891 -6.7792,-0.0276 -0.3581,-0.35812 0.1294,-1.23176 1.0833,-1.94143 2.8207,-2.09838 0.3373,-4.75049 -5.5316,-5.90745 -2.79,-0.55 -5.3652,-1.29369 -5.7226,-1.65264 -1.2098,-1.21489 1.7262,-8.84812 3.397,-8.83205 1.1006,0.0106 1.2253,0.24828 0.4043,0.77035 -0.6531,0.41528 -1.6412,1.94853 -2.1958,3.40723 -0.7709,2.02761 -0.6709,2.93227 0.4247,3.84152 1.9527,1.62063 4.2335,0.56423 4.6309,-2.14493 0.1802,-1.22805 0.9584,-2.44084 1.7294,-2.69508 1.0736,-0.35405 1.2619,0.23723 0.8042,2.52584 -0.6098,3.04882 0.6362,5.27976 2.9487,5.27976 0.6901,0 1.5502,-1.575 1.9113,-3.5 0.3611,-1.925 1.0651,-3.5 1.5643,-3.5 0.4993,0 0.6133,1.1733 0.2534,2.60733 -1.0679,4.2548 1.5731,4.8542 4.7977,1.08892 3.4189,-3.99206 3.7729,-7.13391 0.6938,-6.15663 -1.1992,0.3806 -2.4222,0.1934 -2.8073,-0.42969 -0.3753,-0.60725 -2.0066,-1.27433 -3.6251,-1.4824 -1.6185,-0.20807 -5.3053,-1.32782 -8.1928,-2.48833 -2.8875,-1.16051 -5.25,-1.88003 -5.25,-1.59893 0,0.2811 -1.2929,-0.15752 -2.8732,-0.97471 -1.5803,-0.81719 -3.0912,-1.26787 -3.3575,-1.00151 -0.2664,0.26635 -1.0535,-0.20159 -1.7492,-1.03988 -3.1028,-3.73863 -9.0201,-0.91573 -9.0201,4.3031 0,3.0537 2.8644,3.56114 3.5982,0.63743 0.9985,-3.97846 2.5654,-2.86852 1.8145,1.2853 -0.8697,4.81026 -1.0104,4.92406 -3.4066,2.75555 -1.1033,-0.99854 -2.013,-1.40828 -2.0214,-0.91054 -0.01,0.49775 -0.4515,0.22999 -0.9847,-0.59501 -1.6695,-2.58338 -1.1461,-6.89179 1,-8.23207 1.1,-0.68696 1.9934,-1.70328 1.9853,-2.25848 -0.012,-0.85507 -10.4451,-5.50941 -12.3494,-5.50941 -0.3497,0 -0.6359,2.55 -0.6359,5.66667 0,3.11666 -0.2497,5.41694 -0.5549,5.11173 -0.3052,-0.30521 -0.5929,-3.41771 -0.6392,-6.91667 -0.046,-3.49895 -0.756,-8.16173 -1.5769,-10.36173 -0.8945,-2.39719 -1.6014,-8.33571 -1.7643,-14.82024 -0.1495,-5.95113 -0.5276,-11.07604 -0.8403,-11.38869 -1.3319,-1.33195 -2.702,5.80193 -3.6429,18.96809 -0.5542,7.75518 -1.2268,14.31944 -1.4946,14.58725 -0.8622,0.86227 -0.4569,-17.11846 0.5489,-24.34641 0.5358,-3.85 1.0844,-7.9 1.2191,-9 0.3873,-3.16011 -2.4666,-2.36496 -3.5881,0.99976 -1.3862,4.15834 -4.6452,9.33439 -4.7225,7.50024 -0.035,-0.825 -0.6065,-7.2502 -1.2705,-14.27821 l -1.2072,-12.77822 3.002,0.65936 c 4.454,0.97825 7.2908,3.10275 14.9762,11.21591 3.8197,4.03222 8.1848,7.97252 9.7004,8.75623 3.8239,1.97743 8.7171,1.77688 12.8548,-0.52686 10.0984,-5.62241 11.9366,-6.22424 15.4598,-5.06147 1.8591,0.61356 3.9787,1.84122 4.7102,2.72813 1.1815,1.43251 1.0983,1.48914 -0.7454,0.50712 -1.7896,-0.95323 -2.8911,-0.43603 -8,3.75609 -6.9593,5.7106 -8.9784,8.81187 -9.9427,15.27192 l -0.709,4.75 h 2.9858 c 2.6933,0 3.0463,-0.37894 3.6045,-3.87013 0.3404,-2.12857 1.292,-4.42876 2.1147,-5.11154 1.3049,-1.08296 1.3605,-0.8533 0.4359,1.79925 -1.205,3.45665 0.1548,7.18242 2.6214,7.18242 1.0386,0 1.4648,-1.14662 1.4648,-3.94098 0,-5.60366 1.6445,-5.90546 2.2633,-0.41537 0.6222,5.51973 2.5199,7.20577 4.897,4.35059 2.0995,-2.52179 2.8397,-2.52029 2.8397,0.006 0,2.46534 2.5435,2.6286 3.8948,0.25 0.8738,-1.53795 1.2663,-1.58313 3.2398,-0.37281 2.6682,1.63636 12.8654,2.41259 12.8654,0.97933 0,-0.5434 -0.4694,-1.8651 -1.0431,-2.9371 -0.8147,-1.52231 -0.6905,-2.0844 0.5672,-2.56704 2.4169,-0.92744 3.8818,1.02074 2.5869,3.4403 -1.439,2.68867 1.0835,3.75483 3.2417,1.37013 1.214,-1.34149 1.3449,-2.54598 0.6178,-5.68256 -1.0555,-4.55254 -1.2833,-15.83414 -0.3388,-16.77858 0.3474,-0.34741 2.5244,0.47759 4.8378,1.83334 5.0982,2.98772 7.8847,3.11077 10.5305,0.46499 2.7161,-2.71614 2.589,-8.57169 -0.305,-14.0443 l -2.305,-4.35888 -5.186,0.27525 -5.1859,0.27525 0.5714,-4.32366 c 0.55,-4.16162 0.381,-4.50964 -4.509,-9.28607 -4.4796,-4.37547 -5.0805,-5.44891 -5.0805,-9.07568 0,-2.98938 0.6148,-4.67543 2.25,-6.17062 3.6858,-3.37017 8.3146,-5.25867 13.3569,-5.44939 4.2226,-0.15972 5.0435,0.17463 7.4207,3.02213 2.3421,2.80542 2.8307,3.0116 3.9477,1.66577 2.4087,-2.90231 1.5089,-6.77219 -2.3503,-10.10819 -3.3494,-2.89532 -3.625,-3.55272 -3.625,-8.64669 0,-6.83849 -3.4142,-17.55815 -8.0128,-25.15812 -1.9179,-3.16977 -7.0872,-9.45585 -11.4872,-13.96906 -8.7246,-8.94904 -16.7583,-13.84602 -28.7232,-17.50827 -28.1412,-8.61353 -53.673,-2.48951 -74.9131,17.96856 -9.6825,9.32604 -14.5253,18.89478 -8.3667,16.53151 0.9206,-0.35326 1.2104,-0.0407 0.8451,0.91139 -0.3058,0.79699 -0.8848,1.44907 -1.2867,1.44907 -0.6923,0 -2.8309,6.21285 -4.8477,14.08333 -1.3004,5.07498 0.8596,4.74246 6.4958,-1 2.574,-2.62247 4.2274,-3.76305 3.8647,-2.66601 -0.3486,1.05452 -0.9082,4.54202 -1.2435,7.75 -0.5234,5.00827 -0.3755,5.83268 1.0469,5.83268 0.9111,0 2.932,-1.42742 4.4908,-3.17204 l 2.8342,-3.17203 0.5448,8.73177 c 0.2996,4.80247 0.807,8.99401 1.1275,9.31453 1.2241,1.22409 3.6751,-2.12529 4.2679,-5.8321 0.8625,-5.39417 2.3601,-4.84019 2.3785,0.87987 0.024,7.28399 2.8184,9.57691 4.8802,4.00358 0.6326,-1.7101 1.1274,-1.12496 3.046,3.60233 1.4707,3.62357 2.8757,5.64345 3.9246,5.6423 1.9859,-0.002 6.6598,-7.24811 7.6236,-11.81876 0.4911,-2.32868 1.1312,-3.15516 2.1431,-2.76686 1.7356,0.66602 2.3572,-0.77163 3.3166,-7.67113 l 0.7288,-5.24146 2.2077,4.75 c 5.1368,11.05205 7.179,1.21712 2.1804,-10.5 -2.344,-5.49425 -2.5934,-6.75 -1.3411,-6.75 2.5226,0 8.1368,6.77489 9.3578,11.29245 2.5937,9.59644 -0.2587,17.67639 -10.9512,31.02073 -6.782,8.46408 -11.3928,11.03815 -19.672,10.98229 -6.6391,-0.0448 -11.4894,-2.01882 -19.7568,-8.04071 -5.3141,-3.87078 -6.8987,-3.72852 -4.2081,0.37779 5.3813,8.21294 13.3947,14.36745 18.7068,14.36745 1.7934,0 1.9112,0.52383 1.4052,6.25 -0.767,8.67968 -1.6166,28.13367 -1.8023,41.26727 -0.2176,15.39668 0.1132,15.86186 19.6954,27.6977 6.6,3.98916 12.45,7.62865 13,8.08777 4.2282,3.52957 21.7807,15.28537 25,16.74384 4.7784,2.1648 7.0794,2.3275 11.6008,0.82028 z m -24.513,-27.7698 c -1.6199,-1.79005 -1.6256,-2.12327 -0.087,-5.09906 1.9565,-3.7833 3.0004,-3.44701 1.5055,0.48495 -0.7605,2.0003 -0.729,3.14649 0.1145,4.16285 1.8156,2.18767 0.4121,2.60076 -1.5332,0.45126 z m 34.1013,-33.46506 c -0.4325,-1.5774 -0.5395,-3.1149 -0.2378,-3.41667 1.0432,-1.04313 1.6979,0.6125 1.3617,3.44325 l -0.3374,2.84142 z m 5.4104,-15.80692 c -1.8574,-4.26806 -2.5305,-4.13284 -3.3024,0.66344 -0.4234,2.63064 -3.4671,3.12007 -5.8715,0.94415 -2.9918,-2.70755 -2.5391,-8.80158 1.072,-14.42891 2.9218,-4.55324 9.0355,-10.66892 13.7604,-13.76478 3.8621,-2.5305 4.3545,-0.57673 2.5949,10.29413 -0.8873,5.48179 -1.8922,12.2122 -2.2331,14.95647 -0.8438,6.79326 -3.3985,7.35997 -6.0203,1.3355 z m -40.7832,-20.71472 c -7.3263,-3.42036 -8.8049,-9.46265 -5.4564,-22.29713 0.9595,-3.67773 1.3251,-6.42759 0.8126,-6.11081 -0.5126,0.31679 -0.7384,-0.0492 -0.5019,-0.81322 0.6519,-2.10578 9.73,-6.13953 14.9962,-6.66342 2.9015,-0.28864 6.7925,0.20436 10.2862,1.30325 5.8,1.82432 13.2412,7.53875 12.139,9.3221 -0.3435,0.55587 -0.1389,1.31085 0.4547,1.67773 1.7938,1.1086 4.9493,-2.62736 6.1089,-7.2325 0.8539,-3.39111 1.3758,-4.10022 2.3952,-3.25422 1.4989,1.244 0.9154,7.33384 -0.9955,10.38901 -0.6643,1.06213 -2.8923,2.41213 -4.9512,3 -2.3156,0.66117 -4.227,2.02239 -5.0114,3.56885 -0.6974,1.375 -2.5285,5.10128 -4.069,8.28061 -3.7627,7.7655 -7.2124,10.09805 -15.5013,10.48134 -4.8587,0.22468 -7.5895,-0.1966 -10.7061,-1.65159 z m 16.4843,-3.7887 c 2.9153,-1.38503 5.1169,-3.03651 4.8923,-3.66995 -0.4539,-1.28079 -1.2165,-1.2461 -7.6534,0.34819 -6.187,1.53239 -11.6501,0.39198 -15.4123,-3.21728 l -3.1272,-3.0001 -0.3247,3.26128 c -0.4166,4.18335 3.155,7.95781 8.4913,8.9737 4.6515,0.88553 6.3138,0.54434 13.134,-2.69584 z m 19.499,-6.82166 c 0.069,-2.2 -0.083,-4.675 -0.3375,-5.5 -0.2602,-0.84464 0.1565,-1.5 0.9538,-1.5 2.0025,0 2.4274,4.96796 0.7053,8.24654 l -1.4462,2.75346 z m 1.2004,-32.5 c -1.1,-0.47269 -1.4087,-0.89106 -0.6859,-0.92971 3.0321,-0.16218 12.5534,-5.34922 15.2615,-8.31416 2.494,-2.73067 2.9239,-2.91153 2.9207,-1.22899 -0.014,7.31112 -10.3944,13.52465 -17.4963,10.47286 z m -2.5758,-10.82299 c 2.493,-2.00371 9.128,-4.45814 9.9175,-3.6687 0.9707,0.97073 -2.1614,3.39959 -5.1608,4.00207 -1.7495,0.35141 -4.0809,0.85855 -5.1809,1.12696 -1.7407,0.42476 -1.6857,0.23546 0.4242,-1.46033 z m -71.5683,-10.69195 c -0.3197,-0.83322 -0.341,-2.434 -0.047,-3.55728 0.3986,-1.52437 -0.1434,-2.3409 -2.1373,-3.21965 -1.4692,-0.64754 -3.2594,-1.97177 -3.978,-2.94273 -0.7392,-0.99868 -2.6936,-1.80457 -4.5,-1.85559 l -3.1933,-0.0902 3,-0.923 c 1.7612,-0.54189 4.1618,-2.61169 5.8137,-5.01272 1.5476,-2.24934 3.0926,-3.8109 3.4334,-3.47014 0.3407,0.34077 0.087,1.15207 -0.5638,1.80291 -1.993,1.99299 -1.325,6.71262 1.4406,10.17867 1.466,1.8373 2.7688,4.90277 2.9522,6.94657 0.3267,3.64099 -1.1124,5.03013 -2.2202,2.14315 z m 74.6565,-1.23506 c 0.016,-0.95629 7.0339,-5.53706 7.6063,-4.96467 0.9387,0.93871 -0.8678,3.50713 -3.2208,4.57922 -2.8879,1.31584 -4.4031,1.44901 -4.3855,0.38545 z m -16.5124,-28.40461 c -1.65,-0.54049 -6.825,-1.54821 -11.5,-2.23938 l -8.5,-1.25667 5,-0.72701 c 3.8222,-0.55575 6.59,-0.23411 11.75,1.36551 3.7125,1.15089 6.75,2.52444 6.75,3.05234 0,0.5279 -0.1125,0.92114 -0.25,0.87387 -0.1375,-0.0473 -1.6,-0.52817 -3.25,-1.06866 z m -59.2559,184.51371 c 4.8403,-0.80007 8.7605,-4.41565 8.7406,-8.06135 -0.024,-4.41758 -1.2691,-5.39559 -8.0927,-6.35743 -3.5156,-0.49555 -7.6295,-1.1873 -9.142,-1.53723 -1.5125,-0.34994 -2.75,-0.3292 -2.75,0.0461 0,1.8145 2.4447,4.85116 5.3138,6.60061 l 3.1862,1.94275 -10.25,0.004 c -9.2838,0.003 -10.25,0.17713 -10.25,1.84322 0,1.71319 2.7552,3.65147 7.5,5.27628 2.6159,0.89577 11.012,1.02554 15.7441,0.24334 z m 32.7563,-1.96752 c -4e-4,-1.25882 -9.4023,-7.74958 -12.7765,-8.82051 -1.2231,-0.38822 -2.2239,-1.12552 -2.2239,-1.63846 0,-0.51293 -0.842,-0.93261 -1.8712,-0.93261 -1.4947,0 -2.007,1.02415 -2.5465,5.09142 -0.3831,2.88744 -0.2583,5.59295 0.2882,6.25 1.2909,1.55208 19.1304,1.59885 19.1299,0.0502 z m -32.0004,-15.73106 c 0,-0.73672 -1.2375,-1.89317 -2.75,-2.56989 -4.5355,-2.02925 -9.2359,-5.5079 -9.2432,-6.84063 0,-0.6875 -0.9068,-1.25 -2.0068,-1.25 -5.0179,0 -0.077,7.29325 7,10.33339 4.4553,1.91381 7,2.03274 7,0.32713 z m 72.0378,-20.91052 c 1.0128,-6.7044 0.9576,-7.61171 -0.555,-9.12435 -1.9746,-1.97459 -3.0529,-1.4748 -3.8736,1.7955 -0.7866,3.13388 0.8944,7.57885 2.8661,7.57885 0.8386,0 1.5417,-0.1125 1.5625,-0.25 z m -9.2588,-6.58122 c 0.2534,-3.62178 0.025,-4.16878 -1.7437,-4.16878 -1.6931,0 -2.0353,0.64448 -2.0353,3.83333 0,6.75666 3.3092,7.0504 3.779,0.33545 z m -5.7926,2.08122 c -0.025,-3.21586 -1.2068,-6.25 -2.434,-6.25 -0.668,0 -1.8407,1.17023 -2.6062,2.60052 -1.2498,2.33521 -1.1965,2.74329 0.5222,4 2.6089,1.90771 4.5344,1.75833 4.518,-0.35052 z m -12.1582,-3.87818 c -0.3973,-3.47677 -3.1812,-3.90848 -3.655,-0.56678 -0.387,2.73029 1.7086,5.71314 3.0626,4.35916 0.5063,-0.5063 0.7729,-2.21288 0.5924,-3.79238 z m 4.9822,0.95548 c -0.3917,-4.63461 -2.3435,-5.41189 -3.1731,-1.26366 -0.7166,3.58271 -0.173,4.93636 1.9821,4.93636 1.1189,0 1.4223,-0.93546 1.191,-3.6727 z m 50.5826,-46.90909 c 0.3339,-0.86998 0.607,-3.68883 0.607,-6.26411 0,-2.57529 0.8532,-7.01651 1.8959,-9.8694 1.6396,-4.48572 1.7072,-5.43029 0.5,-6.98588 -1.3411,-1.72818 -1.4527,-1.72545 -2.8427,0.0695 -2.8595,3.69282 -5.8318,22.0198 -3.8865,23.96502 1.182,1.18208 3.1025,0.71044 3.7263,-0.91512 z m 83.6254,302.13028 c -0.9294,-2.44468 -0.1944,-4.23705 7.1298,-17.38707 9.9331,-17.83389 15.5711,-28.11912 18.8632,-34.41142 1.9231,-3.6757 3.051,-4.7673 4.9869,-4.82651 8.8618,-0.27103 13.483,-3.92349 4.9641,-3.92349 -3.7922,0 -3.8834,-0.0792 -2.8078,-2.44004 1.059,-2.32424 1.6157,-2.45829 11.7286,-2.82442 5.8392,-0.2114 11.7418,-0.74195 13.1168,-1.17901 l 2.5,-0.79464 -2.8328,2.73628 c -1.9935,1.92566 -2.5191,3.04997 -1.7738,3.79518 1.3216,1.32166 -6.0894,15.66985 -10.1469,19.64476 -1.5144,1.48361 -5.5644,4.01696 -9,5.62968 -5.9493,2.7927 -8.1279,4.38411 -7.2304,5.28161 0.4133,0.41334 7.7643,-1.25228 10.9904,-2.49028 1.8209,-0.69874 1.4938,0.005 -5.4121,11.64088 -1.1425,1.925 -2.3844,4.175 -2.7598,5 -0.3755,0.825 -2.5797,3.9888 -4.8983,7.03066 -5.046,6.62008 -12.518,10.81266 -20.7923,11.66663 -5.3873,0.55602 -5.6267,0.47837 -6.6256,-2.1488 z m -95.0184,-0.85736 c 0,-1.87832 2.5935,-5.16455 3.2299,-4.09262 0.7453,1.25522 -0.9417,5.40149 -2.1977,5.40149 -0.5677,0 -1.0322,-0.58899 -1.0322,-1.30887 z m 46.0153,-10.44113 c 0.01,-0.4125 0.4515,-1.425 0.9847,-2.25 0.7839,-1.21296 0.9723,-1.06944 0.9847,0.75 0.01,1.2375 -0.4347,2.25 -0.9847,2.25 -0.55,0 -0.9931,-0.3375 -0.9847,-0.75 z m -45.8153,-8.45 c -1.4443,-1.44434 -1.614,-4.17393 -0.2054,-3.30332 1.4311,0.88445 3.2316,4.50332 2.2406,4.50332 -0.4594,0 -1.3752,-0.54 -2.0352,-1.2 z m -20.7,-23.8 c -0.3399,-0.55 -0.1415,-1 0.441,-1 0.5824,0 1.059,0.45 1.059,1 0,0.55 -0.1984,1 -0.441,1 -0.2425,0 -0.7191,-0.45 -1.059,-1 z m 70.155,-0.82874 c -1.9797,-2.18749 -2.1776,-5.17126 -0.3431,-5.17126 1.178,0 5.6881,5.12183 5.6881,6.45951 0,1.30049 -3.8398,0.37504 -5.345,-1.28825 z m -31.1961,-17.23779 c -1.0261,-1.66021 -0.1051,-1.89043 1.3305,-0.33261 0.7092,0.76953 0.8483,1.39914 0.309,1.39914 -0.5392,0 -1.277,-0.47994 -1.6395,-1.06653 z m 144.7656,-96.47588 c -2.3516,-1.25065 -3.7016,-2.4677 -3,-2.70455 2.0057,-0.67718 -5.928,-4.59617 -16.7245,-8.26134 -2.2,-0.74685 -3.4375,-1.38801 -2.75,-1.4248 0.8289,-0.0444 1.25,-1.79563 1.25,-5.19882 0,-4.53795 0.3924,-5.50198 3.3901,-8.32919 5.0274,-4.74145 13.7751,-6.68024 32.8533,-7.28142 13.4792,-0.42474 16.104,-0.25988 18.25,1.14627 1.3787,0.9033 2.5066,2.32282 2.5066,3.1545 0,1.96911 1.4708,1.17781 13.2525,-7.12972 5.0143,-3.53569 9.3713,-6.42816 9.6822,-6.42772 0.3109,4.5e-4 0.623,2.13795 0.6936,4.75 0.071,2.61206 -0.072,3.5117 -0.3164,1.9992 -0.5932,-3.66809 -2.2684,-3.46698 -7.4673,0.89646 -2.3895,2.00555 -10.6446,8.40204 -18.3446,14.21442 -7.7,5.81238 -17.2436,13.39647 -21.208,16.85354 -3.9644,3.45707 -7.3394,6.22517 -7.5,6.15133 -0.1606,-0.0738 -2.216,-1.15751 -4.5675,-2.40816 z m 5.7755,-0.47993 c 0,-1.8583 8.3586,-10.18493 17.75,-17.68207 12.7238,-10.15743 12.31,-12.92654 -2.0912,-13.99449 -13.8749,-1.02892 -33.1883,2.6517 -37.0192,7.05487 -1.8441,2.11956 -1.8178,2.1761 3,6.44336 4.0298,3.56934 4.3793,4.12523 2.0453,3.25285 -3.5642,-1.33218 -3.6849,-1.32343 -3.6849,0.26748 0,1.6153 2.7535,4.01011 10.3159,8.97201 3.1784,2.08542 6.0307,4.44792 6.3385,5.25 0.6331,1.64985 3.3456,2.00333 3.3456,0.43599 z m 1.2638,-25.69524 c 1.52,-0.22986 3.77,-0.22371 5,0.0136 1.2299,0.23736 -0.014,0.42542 -2.7638,0.41792 -2.75,-0.008 -3.7563,-0.20172 -2.2362,-0.43157 z m -53.9948,15.02459 c 0.973,-0.25354 2.323,-0.23687 3,0.0371 0.6771,0.27393 -0.119,0.48137 -1.769,0.46099 -1.65,-0.0204 -2.2039,-0.2445 -1.231,-0.49804 z m 19.5435,-2.99012 c 0.7219,-0.28887 1.5844,-0.25335 1.9167,0.0789 0.3323,0.33229 -0.2584,0.56864 -1.3125,0.52522 -1.165,-0.048 -1.4019,-0.28494 -0.6042,-0.60416 z m -4,-1 c 0.7219,-0.28887 1.5844,-0.25335 1.9167,0.0789 0.3323,0.33229 -0.2584,0.56864 -1.3125,0.52522 -1.165,-0.048 -1.4019,-0.28494 -0.6042,-0.60416 z m -6,-2 c 0.7219,-0.28887 1.5844,-0.25335 1.9167,0.0789 0.3323,0.33229 -0.2584,0.56864 -1.3125,0.52522 -1.165,-0.048 -1.4019,-0.28494 -0.6042,-0.60416 z"
       id="path1" />
  </g>
</svg>
